<svg width="32" height="32" viewBox="0 0 32 32" fill="none" xmlns="http://www.w3.org/2000/svg">
<g clip-path="url(#clip0_3982_12761)">
<path d="M29.5412 13.9834C29.5412 14.1744 28.229 23.6061 28.1997 23.817C28.0944 24.5706 27.6834 25.2475 27.064 25.6877L19.0894 31.3533C18.3893 31.8511 17.4691 32.0124 16.5971 31.7157L5.3105 27.86C4.30949 27.5181 3.59155 26.634 3.46233 25.5845C2.53598 18.0714 2.87471 20.8184 2.0791 14.3668C27.0004 14.0192 22.9566 14.0757 29.5412 13.9834Z" fill="#DD2C5C"/>
<path d="M29.5413 13.9834C29.5413 14.1744 28.2291 23.6061 28.1998 23.817C28.0945 24.5706 27.6836 25.2475 27.0641 25.6877L19.0895 31.3533C18.5904 31.7081 17.9949 31.8824 17.3979 31.8627L17.9641 19.6988C18.6752 18.4174 21.9039 15.9053 25.1551 14.0449L29.5413 13.9834Z" fill="#7777FA"/>
<path d="M31.5775 11.3632C31.4783 11.8152 31.3552 12.3171 31.2035 12.8695C31.0038 13.5991 30.5115 14.2138 29.8455 14.5714C26.7835 16.2138 21.9224 18.6014 18.7018 19.5744C18.2245 19.7236 17.7054 19.744 17.2078 19.6195C14.7415 19.0048 6.64524 16.9898 2.7848 16.0264C1.75302 15.7693 0.961237 14.944 0.747908 13.9026C0.643294 13.3925 0.525689 12.8094 0.408768 12.2111C0.122619 10.7406 1.06052 9.31008 2.5236 8.98654C5.63466 8.29937 10.89 7.00161 14.6137 5.35378C15.227 5.08301 15.9169 5.04541 16.5569 5.24711C18.7667 5.94317 24.219 7.53972 29.1372 8.0245C29.142 8.02518 29.1461 8.02518 29.1508 8.02594C30.7894 8.18682 31.9349 9.74146 31.5775 11.3632Z" fill="#7777FA"/>
<path d="M31.5774 11.3627C31.4782 11.8147 31.3551 12.3166 31.2034 12.869C31.0037 13.5986 30.5114 14.2133 29.8454 14.5709C27.7203 15.7107 22.7037 18.3021 18.7899 19.5458C17.8565 19.7182 17.9678 19.6975 17.9578 19.6997C17.9578 19.6929 17.9467 19.753 18.9403 14.9182C29.6191 7.69805 29.1308 8.02235 29.1507 8.02536C30.7893 8.18632 31.9348 9.74096 31.5774 11.3627Z" fill="#6E6EFA"/>
<path d="M30.9052 8.89429C27.2571 11.2341 21.8961 13.7382 19.8131 14.6841C19.2497 14.9395 18.618 14.9989 18.0174 14.8525C15.2184 14.1704 6.67252 12.0253 0.986328 9.92853C1.36533 9.46665 1.89626 9.12416 2.52387 8.98543C5.63486 8.29847 10.8903 7.00051 14.6137 5.35315C15.2267 5.08184 15.9172 5.04451 16.5571 5.24614C18.7685 5.94275 24.229 7.54176 29.1509 8.02504C29.8537 8.0941 30.464 8.4186 30.9052 8.89429Z" fill="#DD2C5C"/>
<path d="M26.9409 11.1886C26.5061 18.6345 24.9642 27.7367 24.9642 27.7367C23.8764 29.0666 22.3865 29.5424 22.3865 29.5424C22.7188 25.931 23.382 13.0026 23.382 13.0026C20.9082 12.3158 16.7167 11.0388 14.5466 10.3462C14.5466 10.3462 14.6177 10.1855 14.8352 9.97833C15.2317 9.59885 16.1145 9.06348 17.9367 9.06348C20.7558 9.06348 26.9409 11.1886 26.9409 11.1886Z" fill="#B1AFFB"/>
<path d="M26.941 11.1886L23.3821 13.0026C20.3674 12.1657 16.3244 10.9048 14.9925 10.4864L14.8352 9.97833C15.2318 9.59885 16.1145 9.06348 17.9367 9.06348C20.7558 9.06354 26.941 11.1886 26.941 11.1886Z" fill="#A8A6FB"/>
<path d="M17.3979 10.3461C17.2078 10.3461 13.2667 12.1416 11.2222 13.0968C11.2222 13.0968 11.0335 27.1663 11.2222 30.4449C11.2222 30.4449 9.65304 31.2524 8.41751 29.5424C8.00377 22.9244 7.35154 12.0291 7.37411 12.0049C7.43906 11.9673 11.6243 9.53382 14.5466 8.92118C17.4922 8.30307 17.3979 10.3461 17.3979 10.3461Z" fill="#B1AFFB"/>
<path d="M17.3978 10.3462C17.2077 10.3462 13.2666 12.1417 11.2222 13.0969C7.32194 11.991 7.36768 12.0117 7.37404 12.0049C7.439 11.9673 11.6242 9.53379 14.5466 8.92115C17.4922 8.30311 17.3978 10.3462 17.3978 10.3462Z" fill="#A8A6FB"/>
<path d="M17.16 9.6863L16.7217 7.79635C16.7217 7.79635 20.5561 -3.73439 25.8121 1.50107C31.0758 6.74427 24.6537 12.5284 17.16 9.6863Z" fill="#B1AFFB"/>
<path d="M27.5775 6.56979C26.7078 9.57897 22.3338 11.5127 17.4238 9.78272L17.7431 8.76462C18.8948 6.37218 20.9445 2.92349 23.6056 2.8584H23.7492C25.3663 2.89532 26.3926 4.2047 26.3926 4.2047C26.3926 4.2047 27.2035 5.15579 27.5775 6.56979Z" fill="#A8A6FB"/>
<path d="M18.7893 6.81115L18.79 6.80842L18.7914 6.80637C20.6156 3.77394 22.2928 2.89053 23.6056 2.8584H23.7492C23.7492 2.8584 24.4665 10.7051 18.7893 6.81115Z" fill="#9E9DFB"/>
<path d="M16.0045 8.01294L15.6455 9.93427C8.26281 13.363 1.63776 8.0902 6.66721 2.44722C11.6962 -3.19507 16.0045 8.01294 16.0045 8.01294Z" fill="#B1AFFB"/>
<path d="M15.0253 9.06005L14.959 10.2286C10.3758 12.0412 6.22343 10.5486 5.16772 7.79101C5.26208 6.92402 5.53148 5.93121 6.20019 5.19276C6.20019 5.19276 7.17043 3.80407 8.78271 3.63929C11.4881 3.36244 13.7339 6.68471 15.0253 9.06005Z" fill="#A8A6FB"/>
<path d="M13.899 7.19179C8.39418 11.5288 8.78255 3.63903 8.78255 3.63903C10.1124 3.5029 11.8792 4.19834 13.899 7.19179Z" fill="#9E9DFB"/>
<path d="M19.0089 10.594C19.0089 10.594 18.7262 6.84769 16.3718 6.98308C14.0174 7.11846 14.1947 11.341 14.1947 11.341C14.1947 11.341 16.6703 12.62 19.0089 10.594Z" fill="#A8A6FB"/>
<path d="M29.164 7.88971C28.5594 7.83022 27.9156 7.75009 27.248 7.65156C28.2911 5.93473 28.1465 3.6344 25.9083 1.40462C22.5794 -1.91156 19.5861 1.13946 17.557 5.41166C17.2154 5.30903 16.8926 5.20982 16.5977 5.1167C15.9989 4.92784 15.3513 4.93988 14.7611 5.14856C12.5203 1.26124 9.56107 -1.00552 6.56475 2.35613C4.7909 4.34652 4.31063 6.45623 5.20634 8.21791C4.31617 8.43794 3.40507 8.65154 2.49398 8.85291C0.957662 9.19266 -0.0259793 10.6936 0.274392 12.2373C0.377843 12.7663 0.492029 13.3359 0.613805 13.9301C0.790007 14.7888 1.35601 15.5288 2.1333 15.9254L3.32651 25.6012C3.46128 26.6956 4.22263 27.633 5.26624 27.9895L8.24697 29.0074C8.28417 29.6057 8.27467 29.5789 8.30653 29.6228C8.97209 30.5441 9.73946 30.7681 10.3286 30.768C10.8808 30.768 11.2766 30.571 11.2847 30.5669C11.3327 30.5422 11.3617 30.4914 11.3586 30.4374C11.3522 30.3258 11.3463 30.201 11.3407 30.0649L16.5528 31.8451C17.4287 32.1442 18.4069 32.0063 19.1684 31.4648L22.2742 29.2584C22.266 29.3536 22.258 29.4452 22.2502 29.5302C22.2412 29.6276 22.3346 29.7027 22.4279 29.673C22.4904 29.653 23.9691 29.1693 25.0699 27.8235C25.1015 27.7847 25.0943 27.7969 25.1933 27.1841L27.143 25.7991C27.7905 25.3391 28.2249 24.6234 28.335 23.8358C28.5551 22.2534 29.2882 16.9749 29.5669 14.8752C29.6895 14.8099 29.8047 14.7484 29.9101 14.6917C30.6075 14.3172 31.127 13.6662 31.3351 12.9057C31.4791 12.3817 31.6055 11.8726 31.7108 11.3926C32.0839 9.69986 30.8919 8.05935 29.164 7.88971ZM22.4935 0.333734C23.5636 0.109191 24.6475 0.534552 25.7155 1.59833C27.5716 3.44753 28.085 5.53228 27.1243 7.31803C25.9867 9.43218 23.5227 9.95278 23.4237 9.99757C22.119 10.3486 20.6192 10.3989 19.0817 10.0953C18.9605 9.36688 18.7199 8.55336 18.3163 7.93128C18.4876 7.60664 18.6597 7.29799 18.8325 7.00507C19.9013 7.71822 21.3564 8.42454 22.4631 7.7758C24.0389 6.85178 23.944 3.74933 23.8972 3.00377C25.3425 3.11488 26.2746 4.27644 26.2848 4.2895C26.3317 4.34885 26.4175 4.3591 26.4768 4.31254C26.5362 4.26591 26.5466 4.18003 26.5001 4.12068C26.4502 4.05695 25.2563 2.56317 23.3858 2.73465C21.5698 2.90094 19.8051 4.56628 18.1384 7.68328C17.8623 7.33601 17.5408 7.09403 17.1793 6.96186C17.9426 5.04668 19.8827 0.882101 22.4935 0.333734ZM19.0547 15.0414C19.3348 15.004 19.6099 14.927 19.8693 14.8092C20.9843 14.3023 22.142 13.7574 23.2334 13.2267C23.2017 13.8373 23.1097 15.5996 22.9903 17.778C21.3551 18.4942 19.8985 19.0546 18.6607 19.4437C18.4865 19.4983 18.3079 19.5342 18.1278 19.5517L19.0547 15.0414ZM17.8464 19.5626C17.6431 19.5605 17.4398 19.5362 17.2407 19.4868C16.3868 19.2738 15.3893 19.0257 11.307 18.0094C11.3265 15.6957 11.3493 13.8402 11.3565 13.2757C14.2424 14.0617 16.7398 14.6826 17.9847 14.9859C18.2571 15.0527 18.5115 15.0742 18.7706 15.0655L17.8464 19.5626ZM19.7562 14.5602C19.2229 14.8023 18.6169 14.859 18.0495 14.7201C16.8333 14.4238 14.4205 13.8241 11.6184 13.0633C12.5624 12.6242 13.6951 12.1051 14.6693 11.6654C15.6798 11.9683 16.7901 11.9517 17.8229 11.5067C19.865 12.1318 21.6031 12.6459 22.9974 13.0374C21.9425 13.5491 20.8293 14.0723 19.7562 14.5602ZM14.6355 11.3742C14.4982 11.3272 14.3936 11.2833 14.3293 11.2542C14.3215 10.6771 14.3605 7.23604 16.3794 7.12001C18.4013 7.00138 18.8124 10.0398 18.8657 10.5367C17.5982 11.6065 16.066 11.8637 14.6355 11.3742ZM18.9731 6.77062C20.013 5.06398 21.623 3.03324 23.622 2.99632C23.6619 3.6517 23.7652 6.69527 22.3248 7.53983C21.5456 7.99672 20.4181 7.73771 18.9731 6.77062ZM16.5155 5.37741C16.8004 5.46746 17.1114 5.56305 17.4399 5.66192C17.2281 6.12153 17.0522 6.54088 16.915 6.88631C16.5412 6.80788 16.0994 6.83106 15.7152 6.997C15.5128 6.5579 15.2375 5.99675 14.8988 5.39081C15.4206 5.21721 15.9887 5.21133 16.5155 5.37741ZM6.76905 2.538C7.81163 1.36818 8.89852 0.860495 9.99806 1.0276C12.5707 1.41966 14.6479 5.33091 15.4726 7.12398C15.1096 7.35194 14.8389 7.70079 14.6372 8.10229C12.8582 5.11704 11.0403 3.565 9.2315 3.48937C9.02385 3.48069 8.78885 3.49901 8.75712 3.50483C7.11093 3.67597 6.13234 5.05092 6.08783 5.11464C6.04462 5.17652 6.05973 5.26165 6.12154 5.30493C6.18342 5.34835 6.26861 5.33317 6.31196 5.27136C6.32181 5.25727 7.20104 4.02502 8.64054 3.79699C8.60006 5.80865 9.08224 8.63096 11.0943 8.63048C11.8643 8.63048 12.7931 8.21476 13.8677 7.38961C14.0787 7.70817 14.2895 8.0482 14.5001 8.40826C14.2362 9.06897 14.1263 9.81685 14.0821 10.3937C7.49827 12.4548 2.17603 7.69149 6.76905 2.538ZM13.7148 7.16275C12.2968 8.25579 11.1733 8.60183 10.3745 8.18946C8.92313 7.4409 8.90296 4.40888 8.91554 3.76629C10.9042 3.64158 12.5963 5.52763 13.7148 7.16275ZM0.881697 13.8751C0.760127 13.2818 0.646078 12.7131 0.542832 12.1849C0.271246 10.7889 1.15971 9.42801 2.55299 9.11998C3.49027 8.9128 4.42776 8.69277 5.34241 8.46611C6.13193 9.79484 7.55748 10.5978 9.05161 10.9436C8.18038 11.3889 7.53628 11.7544 7.35584 11.8581C6.22827 11.5244 5.17304 11.1997 4.21935 10.8925C4.14721 10.8691 4.07036 10.9089 4.04725 10.9807C4.02407 11.0527 4.06352 11.1297 4.13545 11.1528C5.08087 11.4574 6.12585 11.7791 7.24166 12.1095C7.30511 13.3373 7.40624 15.1125 7.52111 17.0658C5.73426 16.621 4.0573 16.2032 2.8178 15.8936C1.80565 15.6405 1.07684 14.8263 0.881697 13.8751ZM5.35458 27.7306C4.4095 27.4078 3.71994 26.5589 3.59796 25.5677L2.42499 16.0556C2.64447 16.1391 2.30513 16.0494 7.53799 17.3518C7.79214 21.6635 8.10619 26.7418 8.22858 28.7121L5.35458 27.7306ZM11.1609 12.9754C11.1135 12.9993 11.0871 13.0461 11.0858 13.093C11.0686 13.5044 10.9153 27.1926 11.0804 30.359C10.7604 30.489 9.55594 30.8538 8.55138 29.4943C8.50188 28.7022 7.74859 16.62 7.5142 12.0827C7.74312 11.9516 8.49791 11.5256 9.48326 11.0319C11.0052 11.2985 12.5798 11.1372 14.0642 10.6866C14.0472 11.0532 14.0563 11.3063 14.058 11.3472C14.0601 11.3962 14.0882 11.4404 14.1319 11.4629C14.1356 11.4648 14.1929 11.4935 14.2947 11.5348C13.2284 12.0174 11.3151 12.8983 11.1609 12.9754ZM22.3039 28.9018L19.0101 31.2418C18.3239 31.7296 17.4383 31.8583 16.6413 31.5862L11.3299 29.772C11.251 27.3809 11.2722 22.2371 11.3046 18.2906C15.4533 19.3234 16.3251 19.5402 17.1746 19.7521C17.6906 19.8803 18.2305 19.8652 18.7426 19.7048C19.9577 19.3228 21.3806 18.7775 22.9735 18.0838C22.7709 21.768 22.497 26.5039 22.3039 28.9018ZM24.8353 27.6782C24.0204 28.6599 22.9721 29.1618 22.542 29.3378C22.8766 25.4902 23.512 13.1366 23.5184 13.0098C23.5205 12.9698 23.5058 12.9311 23.4701 12.8989C23.3965 12.8364 23.0129 12.8049 18.1849 11.3313C18.4886 11.1675 18.7948 10.9606 19.0983 10.6977C19.131 10.6694 19.1483 10.6272 19.1451 10.584C19.1444 10.5737 19.1385 10.5007 19.1237 10.3824C20.5687 10.6553 22.0608 10.6493 23.479 10.2637C25.0736 10.7105 26.4301 11.1608 26.7982 11.2848C26.4982 16.3119 25.5979 23.116 24.8353 27.6782ZM28.0641 23.798C27.9645 24.5114 27.571 25.1595 26.9846 25.5762L25.254 26.8055C25.5436 24.9846 26.1788 20.8003 26.6427 16.3738C27.6726 15.8654 28.5754 15.399 29.2701 15.0325C28.9746 17.2453 28.2777 22.2625 28.0641 23.798ZM31.4438 11.3338C31.3394 11.8093 31.2142 12.3138 31.0714 12.8334C30.8829 13.5221 30.4125 14.1116 29.7807 14.4508C28.8407 14.9558 27.7586 15.5156 26.6761 16.0522C26.8404 14.4506 26.9807 12.8245 27.0728 11.2732C27.5582 11.0127 27.989 10.7771 28.3861 10.5546C28.452 10.5176 28.4756 10.4343 28.4386 10.3684C28.4017 10.3025 28.3182 10.279 28.2524 10.3159C27.8527 10.5399 27.4187 10.7772 26.9286 11.0401C26.6597 10.9491 25.4507 10.5444 23.9623 10.1165C25.2042 9.69508 26.3469 8.95567 27.0829 7.90331C27.7995 8.01114 28.4906 8.09818 29.1374 8.16177C30.7035 8.31575 31.7812 9.80222 31.4438 11.3338Z" fill="#3A00D9"/>
</g>
<defs>
<clipPath id="clip0_3982_12761">
<rect width="32" height="32" fill="white"/>
</clipPath>
</defs>
</svg>
