<svg width="152" height="41" viewBox="0 0 152 41" fill="none" xmlns="http://www.w3.org/2000/svg">
<path d="M24.0793 18.8556C24.0417 14.3733 27.7477 12.1948 27.9105 12.0946C25.8071 9.03969 22.5518 8.614 21.4125 8.57644C18.6831 8.28847 16.0288 10.2166 14.639 10.2166C13.2242 10.2166 11.0708 8.614 8.76703 8.65156C5.79974 8.70164 3.00772 10.4169 1.49278 13.0962C-1.64981 18.5425 0.69148 26.5555 3.70886 30.9626C5.22381 33.1161 6.97664 35.5325 9.29288 35.4449C11.5465 35.3572 12.3979 34.005 15.1148 34.005C17.8192 34.005 18.6079 35.4449 20.9617 35.3948C23.3907 35.3572 24.9056 33.2288 26.3705 31.0503C28.1108 28.5838 28.8119 26.1423 28.837 26.0171C28.7744 25.9921 24.1294 24.2142 24.0793 18.8556Z" fill="white"/>
<path d="M19.6346 5.68419C20.849 4.16924 21.6754 2.1034 21.45 0C19.6972 0.0751215 17.4936 1.21446 16.2291 2.70437C15.1148 4.019 14.1131 6.15996 14.3636 8.17572C16.3418 8.32596 18.37 7.1741 19.6346 5.68419Z" fill="white"/>
<path d="M56.7822 35.1318H53.6271L51.8993 29.698H45.8896L44.2494 35.1318H41.1819L47.1291 16.6394H50.81L56.7822 35.1318ZM51.3859 27.4193L49.8209 22.599C49.6581 22.0982 49.3451 20.9464 48.8944 19.1184H48.8318C48.644 19.9072 48.356 21.0716 47.9554 22.599L46.4154 27.4193H51.3859Z" fill="white"/>
<path d="M72.0694 28.3082C72.0694 30.5744 71.4559 32.3647 70.2164 33.6794C69.1146 34.8563 67.7374 35.4322 66.1098 35.4322C64.3444 35.4322 63.0799 34.8062 62.3036 33.5416V40.5405H59.3363V26.1797C59.3363 24.7524 59.2988 23.3001 59.2236 21.7977H61.8278L61.9906 23.9136H62.0407C63.0298 22.3235 64.5322 21.5222 66.5355 21.5222C68.113 21.5222 69.4151 22.1482 70.4668 23.3877C71.5435 24.6398 72.0694 26.2674 72.0694 28.3082ZM69.052 28.4083C69.052 27.1062 68.7641 26.042 68.1756 25.2032C67.5371 24.3268 66.6732 23.8885 65.5964 23.8885C64.8703 23.8885 64.2067 24.1389 63.6057 24.6147C63.0173 25.103 62.6166 25.729 62.4413 26.5178C62.3537 26.8809 62.3036 27.1814 62.3036 27.4193V29.6479C62.3036 30.6119 62.6041 31.4382 63.1925 32.1018C63.781 32.7654 64.5573 33.1034 65.5088 33.1034C66.6231 33.1034 67.487 32.6652 68.113 31.8139C68.739 30.95 69.052 29.8231 69.052 28.4083Z" fill="white"/>
<path d="M87.3942 28.3082C87.3942 30.5744 86.7807 32.3647 85.5412 33.6794C84.4395 34.8563 83.0622 35.4322 81.4346 35.4322C79.6692 35.4322 78.4047 34.8062 77.6284 33.5416V40.5405H74.6611V26.1797C74.6611 24.7524 74.6236 23.3001 74.5485 21.7977H77.1527L77.3154 23.9136H77.3655C78.3546 22.3235 79.857 21.5222 81.8603 21.5222C83.4378 21.5222 84.7399 22.1482 85.7916 23.3877C86.8684 24.6398 87.3942 26.2674 87.3942 28.3082ZM84.3769 28.4083C84.3769 27.1062 84.0889 26.042 83.5004 25.2032C82.8619 24.3268 81.998 23.8885 80.9213 23.8885C80.1951 23.8885 79.5315 24.1389 78.9305 24.6147C78.3421 25.103 77.954 25.729 77.7662 26.5178C77.6785 26.8809 77.6284 27.1814 77.6284 27.4193V29.6479C77.6284 30.6119 77.9289 31.4382 78.5174 32.1018C79.1058 32.7654 79.8821 33.1034 80.8336 33.1034C81.9479 33.1034 82.8243 32.6652 83.4378 31.8139C84.0764 30.95 84.3769 29.8231 84.3769 28.4083Z" fill="white"/>
<path d="M104.547 29.9484C104.547 31.526 103.996 32.803 102.907 33.7921C101.705 34.8689 100.027 35.4072 97.8736 35.4072C95.8829 35.4072 94.2928 35.0191 93.0909 34.2554L93.7795 31.7889C95.0816 32.5526 96.5089 32.9407 98.0614 32.9407C99.1757 32.9407 100.052 32.6903 100.666 32.1895C101.292 31.6887 101.605 31.0126 101.605 30.1738C101.605 29.4226 101.342 28.7965 100.841 28.2832C100.328 27.7699 99.4762 27.2941 98.2868 26.8559C95.019 25.6414 93.4039 23.8761 93.4039 21.5598C93.4039 20.0449 93.9798 18.8054 95.1192 17.8288C96.2585 16.8648 97.7735 16.3765 99.664 16.3765C101.342 16.3765 102.744 16.6644 103.858 17.2529L103.107 19.6568C102.055 19.0934 100.878 18.8054 99.5513 18.8054C98.5121 18.8054 97.6858 19.0683 97.0974 19.5691C96.6091 20.0324 96.3587 20.5833 96.3587 21.2468C96.3587 21.973 96.6466 22.5865 97.21 23.0498C97.6983 23.488 98.5998 23.9637 99.9019 24.4771C101.492 25.1156 102.656 25.8668 103.408 26.7307C104.171 27.5946 104.547 28.6713 104.547 29.9484Z" fill="white"/>
<path d="M114.363 24.0264H111.095V30.4994C111.095 32.1396 111.671 32.9659 112.823 32.9659C113.349 32.9659 113.787 32.9158 114.137 32.8282L114.225 35.0818C113.637 35.2947 112.873 35.4073 111.921 35.4073C110.744 35.4073 109.843 35.0443 109.179 34.3306C108.516 33.617 108.19 32.415 108.19 30.7373V24.0139H106.25V21.7978H108.19V19.3564L111.095 18.48V21.7978H114.363V24.0264Z" fill="white"/>
<path d="M129.062 28.3584C129.062 30.4118 128.473 32.0895 127.309 33.4041C126.082 34.7563 124.454 35.4324 122.426 35.4324C120.473 35.4324 118.908 34.7813 117.743 33.4917C116.579 32.2022 116.003 30.562 116.003 28.5838C116.003 26.518 116.604 24.8277 117.793 23.5131C118.995 22.1985 120.61 21.5349 122.639 21.5349C124.592 21.5349 126.169 22.186 127.359 23.4881C128.498 24.7401 129.062 26.3677 129.062 28.3584ZM125.994 28.421C125.994 27.1941 125.731 26.1549 125.205 25.2785C124.579 24.2142 123.69 23.6884 122.538 23.6884C121.349 23.6884 120.435 24.2142 119.822 25.2785C119.283 26.1549 119.033 27.2191 119.033 28.4836C119.033 29.7106 119.296 30.7623 119.822 31.6262C120.46 32.6904 121.362 33.2163 122.513 33.2163C123.64 33.2163 124.529 32.6779 125.18 31.6012C125.719 30.6997 125.994 29.648 125.994 28.421Z" fill="white"/>
<path d="M138.702 24.4019C138.414 24.3518 138.101 24.3268 137.763 24.3268C136.724 24.3268 135.91 24.7149 135.347 25.5037C134.858 26.1923 134.608 27.0812 134.608 28.1329V35.1317H131.641V25.9919C131.641 24.452 131.616 23.0497 131.553 21.7977H134.132L134.245 24.3518H134.333C134.646 23.4754 135.134 22.7617 135.81 22.2359C136.473 21.7601 137.187 21.5222 137.951 21.5222C138.226 21.5222 138.477 21.5473 138.69 21.5723L138.702 24.4019Z" fill="white"/>
<path d="M151.949 27.8324C151.949 28.3582 151.911 28.809 151.836 29.172H142.946C142.984 30.4867 143.41 31.5008 144.236 32.1894C144.987 32.8029 145.951 33.1159 147.141 33.1159C148.455 33.1159 149.657 32.9031 150.734 32.4899L151.197 34.5432C149.933 35.0941 148.443 35.3696 146.728 35.3696C144.662 35.3696 143.034 34.7561 141.857 33.5416C140.68 32.3271 140.092 30.687 140.092 28.6462C140.092 26.643 140.643 24.9652 141.745 23.6256C142.896 22.1983 144.449 21.4846 146.402 21.4846C148.318 21.4846 149.783 22.1983 150.759 23.6256C151.548 24.7774 151.949 26.1672 151.949 27.8324ZM149.119 27.0686C149.144 26.1922 148.944 25.4285 148.543 24.79C148.03 23.9636 147.241 23.5505 146.189 23.5505C145.225 23.5505 144.436 23.9511 143.835 24.7524C143.347 25.3909 143.047 26.1672 142.959 27.0561L149.119 27.0686Z" fill="white"/>
<path d="M49.9587 10.0289H48.4061L47.5548 7.36209H44.6L43.7862 10.0289H42.2838L45.201 0.939209H47.0039L49.9587 10.0289ZM47.2918 6.23527L46.5281 3.85643C46.453 3.61854 46.3027 3.04261 46.0649 2.14115H46.0398C45.9397 2.52928 45.8145 3.09269 45.6016 3.85643L44.8504 6.23527H47.2918Z" fill="white"/>
<path d="M57.2705 3.46826L54.7915 10.0289H53.3767L50.9728 3.46826H52.5378L53.6521 6.93637C53.8399 7.5123 54.0027 8.06319 54.1279 8.58904H54.1654C54.2781 8.11327 54.4409 7.56238 54.6412 6.93637L55.743 3.46826H57.2705Z" fill="white"/>
<path d="M62.554 10.0288L62.4413 9.27754H62.4038C61.953 9.87851 61.3145 10.179 60.4882 10.179C59.3113 10.179 58.4849 9.35266 58.4849 8.25088C58.4849 6.63577 59.8872 5.79692 62.3161 5.79692V5.67171C62.3161 4.80782 61.8529 4.38213 60.9514 4.38213C60.3004 4.38213 59.7369 4.54489 59.2361 4.87042L58.9357 3.91888C59.5366 3.54327 60.3004 3.35547 61.1893 3.35547C62.9046 3.35547 63.7685 4.25693 63.7685 6.07236V8.48877C63.7685 9.15234 63.7935 9.66567 63.8686 10.0538L62.554 10.0288ZM62.3537 6.76097C60.7386 6.76097 59.9248 7.1491 59.9248 8.08812C59.9248 8.77673 60.3379 9.11478 60.9264 9.11478C61.6651 9.11478 62.3537 8.55137 62.3537 7.77511V6.76097Z" fill="white"/>
<path d="M67.0112 2.39144C66.5229 2.39144 66.1473 2.01583 66.1473 1.51502C66.1473 1.01421 66.5355 0.651123 67.0363 0.651123C67.5371 0.651123 67.9377 1.01421 67.9252 1.51502C67.9252 2.04087 67.5496 2.39144 67.0112 2.39144ZM66.3101 3.46818H67.7624V10.0163H66.3101V3.46818Z" fill="white"/>
<path d="M70.3541 0.463379H71.8065V10.0163H70.3541V0.463379Z" fill="white"/>
<path d="M77.9915 10.0288L77.8788 9.27761H77.8413C77.3905 9.87858 76.752 10.1791 75.9257 10.1791C74.7488 10.1791 73.9224 9.35273 73.9224 8.25095C73.9224 6.63584 75.3247 5.79698 77.7536 5.79698V5.67178C77.7536 4.80789 77.2904 4.3822 76.3889 4.3822C75.7379 4.3822 75.1744 4.54496 74.6736 4.87049L74.3732 3.90643C74.9741 3.53082 75.7379 3.34302 76.6268 3.34302C78.3421 3.34302 79.206 4.24448 79.206 6.05991V8.47632C79.206 9.13989 79.231 9.65322 79.2936 10.0413H77.9915V10.0288ZM77.7912 6.76104C76.1761 6.76104 75.3623 7.14917 75.3623 8.08819C75.3623 8.7768 75.7754 9.11485 76.3639 9.11485C77.1026 9.11485 77.7912 8.55144 77.7912 7.77518V6.76104Z" fill="white"/>
<path d="M85.1155 10.1791C84.189 10.1791 83.5004 9.79096 83.0496 9.0147H83.0246L82.937 10.0288H81.6974C81.735 9.50299 81.7475 8.91454 81.7475 8.26349V0.463379H83.2124V4.4323H83.2374C83.6756 3.70612 84.3643 3.34303 85.3283 3.34303C86.9059 3.34303 88.0076 4.69522 88.0076 6.6609C88.0076 8.68918 86.7807 10.1791 85.1155 10.1791ZM84.815 4.48238C83.9761 4.48238 83.2124 5.20855 83.2124 6.22269V7.37455C83.2124 8.27601 83.901 9.0147 84.7899 9.0147C85.8792 9.0147 86.5303 8.12577 86.5303 6.71098C86.5303 5.38383 85.8542 4.48238 84.815 4.48238Z" fill="white"/>
<path d="M90.1611 0.463379H91.6135V10.0163H90.1611V0.463379Z" fill="white"/>
<path d="M99.5388 7.09923H95.1692C95.1943 8.33873 96.0206 9.03986 97.2351 9.03986C97.8861 9.03986 98.4746 8.92718 99.0004 8.72686L99.2258 9.741C98.6123 10.0164 97.8861 10.1416 97.0348 10.1416C94.9814 10.1416 93.767 8.85206 93.767 6.8363C93.767 4.83306 95.0065 3.31812 96.872 3.31812C98.5372 3.31812 99.6014 4.55762 99.6014 6.43566C99.6014 6.69858 99.5889 6.92394 99.5388 7.09923ZM98.2117 6.06005C98.2117 5.04591 97.6983 4.33225 96.7718 4.33225C95.933 4.33225 95.2819 5.05843 95.1818 6.06005H98.2117Z" fill="white"/>
<path d="M108.366 10.1791C106.45 10.1791 105.21 8.75176 105.21 6.81112C105.21 4.78285 106.475 3.34302 108.478 3.34302C110.369 3.34302 111.633 4.70772 111.633 6.69844C111.633 8.73924 110.331 10.1791 108.366 10.1791ZM108.428 4.40724C107.376 4.40724 106.7 5.39634 106.7 6.76104C106.7 8.11323 107.389 9.08981 108.416 9.08981C109.442 9.08981 110.131 8.03811 110.131 6.72348C110.118 5.39634 109.455 4.40724 108.428 4.40724Z" fill="white"/>
<path d="M119.459 10.0289H118.006V6.2603C118.006 5.09592 117.555 4.51999 116.679 4.51999C115.815 4.51999 115.227 5.25868 115.227 6.12258V10.0164H113.774V5.34633C113.774 4.77039 113.762 4.14438 113.724 3.46829H115.001L115.064 4.48243H115.101C115.49 3.78129 116.291 3.33057 117.18 3.33057C118.557 3.33057 119.459 4.38227 119.459 6.09754V10.0289Z" fill="white"/>
<path d="M128.986 4.56999H127.384V7.75013C127.384 8.56395 127.672 8.96459 128.235 8.96459C128.486 8.96459 128.711 8.93955 128.886 8.90199L128.924 10.0038C128.636 10.1165 128.26 10.1665 127.797 10.1665C126.645 10.1665 125.969 9.528 125.969 7.87533V4.56999H125.017V3.48073H125.969V2.27878L127.396 1.84058V3.46821H128.999V4.56999" fill="white"/>
<path d="M136.699 10.0288H135.247V6.28529C135.247 5.10839 134.796 4.51994 133.919 4.51994C133.168 4.51994 132.467 5.03327 132.467 6.07245V10.0163H131.015V0.463379H132.467V4.39473H132.492C132.955 3.68108 133.606 3.33051 134.458 3.33051C135.848 3.33051 136.699 4.40725 136.699 6.12253V10.0288Z" fill="white"/>
<path d="M144.136 7.09923H139.766C139.791 8.33873 140.618 9.03986 141.832 9.03986C142.483 9.03986 143.072 8.92718 143.598 8.72686L143.823 9.741C143.209 10.0164 142.483 10.1416 141.632 10.1416C139.579 10.1416 138.364 8.85206 138.364 6.8363C138.364 4.83306 139.604 3.31812 141.469 3.31812C143.134 3.31812 144.199 4.55762 144.199 6.43566C144.199 6.69858 144.186 6.92394 144.136 7.09923ZM142.809 6.06005C142.809 5.04591 142.295 4.33225 141.369 4.33225C140.53 4.33225 139.867 5.05843 139.779 6.06005H142.809Z" fill="white"/>
</svg>
