<svg width="24" height="24" viewBox="0 0 24 24" fill="none" xmlns="http://www.w3.org/2000/svg">
<g id="vuesax/bold/bag-2">
<g id="Group">
<path id="Vector" d="M16.38 7.64002V8.08931L16.8267 8.13718C18.1548 8.27947 19.0292 8.67798 19.5878 9.29394C20.3924 10.2006 20.4009 11.4406 20.2934 12.4114L19.5939 17.9979L19.5938 17.9979L19.5929 18.0062C19.492 18.9387 19.26 19.7798 18.6246 20.3996C17.9928 21.0159 16.8704 21.5 14.79 21.5H9.20999C7.1295 21.5 6.0074 21.0159 5.37566 20.3986C4.74022 19.7778 4.50811 18.9343 4.40712 17.9965L4.40719 17.9965L4.40609 17.9877L3.70657 12.4216C3.59852 11.436 3.59919 10.1997 4.41134 9.29484C4.96992 8.67837 5.84454 8.27954 7.17326 8.13718L7.61999 8.08931V7.64002V7.06002C7.61999 4.79943 9.45184 2.72177 11.5672 2.51779C12.8191 2.40088 14.0189 2.79605 14.9429 3.63934L14.9429 3.63935L14.9451 3.64131C15.8589 4.46547 16.38 5.65003 16.38 6.88002V7.64002ZM11.6152 2.91203L11.6126 2.91227C10.6198 3.00682 9.72051 3.55364 9.07626 4.30108C8.43121 5.04946 8.00999 6.03479 8.00999 7.06002V7.58002V8.08002H8.50999H15.49H15.99V7.58002V6.88002C15.99 5.76092 15.5218 4.68542 14.6853 3.92913C13.8394 3.1634 12.7507 2.80983 11.6152 2.91203ZM8.40999 13.65H8.41999C9.24613 13.65 9.91999 12.9762 9.91999 12.15C9.91999 11.3206 9.24289 10.65 8.40999 10.65C7.58385 10.65 6.90999 11.3239 6.90999 12.15C6.90999 12.9762 7.58385 13.65 8.40999 13.65ZM15.41 13.65H15.42C16.2461 13.65 16.92 12.9762 16.92 12.15C16.92 11.3206 16.2429 10.65 15.41 10.65C14.5838 10.65 13.91 11.3239 13.91 12.15C13.91 12.9762 14.5838 13.65 15.41 13.65Z" fill="#8B5CF6" stroke="#8B5CF6"/>
</g>
</g>
</svg>
