<svg width="17" height="16" viewBox="0 0 17 16" fill="none" xmlns="http://www.w3.org/2000/svg">
<g id="oc/cloud">
<path id="Vector" d="M3.72712 7.28343L4.04201 7.13588L4.01326 6.78933C3.97325 6.30695 4.03372 5.82151 4.19087 5.3637C4.34802 4.90588 4.59842 4.48563 4.92625 4.12951C5.25408 3.77339 5.65221 3.48915 6.09549 3.29473C6.53877 3.10031 7.01755 2.99996 7.50159 3H7.50168C8.20156 2.99994 8.88538 3.20966 9.46488 3.6021C10.0444 3.99453 10.4929 4.55166 10.7527 5.20155L10.8945 5.55631L11.274 5.51274C11.58 5.47761 11.8899 5.51362 12.1797 5.61795C12.4694 5.72229 12.7312 5.89213 12.9445 6.11425L13.3051 5.76789L12.9445 6.11425C13.1579 6.33637 13.317 6.60475 13.4096 6.89849C13.5022 7.19222 13.5257 7.50337 13.4783 7.80767L13.4248 8.15055L13.7274 8.32056C14.2094 8.59142 14.588 9.01442 14.804 9.52338C15.0199 10.0323 15.0611 10.5985 14.921 11.1334C14.781 11.6682 14.4675 12.1416 14.0298 12.4793C13.592 12.8171 13.0547 13.0002 12.5018 13H12.5016H5.00164H5.0014C4.31893 13.0003 3.65674 12.7679 3.12414 12.3412C2.59153 11.9144 2.22036 11.3188 2.07187 10.6527C1.92338 9.98658 2.00646 9.28974 2.30739 8.67719C2.60832 8.06464 3.10912 7.573 3.72712 7.28343ZM9.50164 8.58623V6.5C9.50164 6.23478 9.39628 5.98043 9.20874 5.79289C9.02121 5.60536 8.76685 5.5 8.50164 5.5C8.23642 5.5 7.98207 5.60536 7.79453 5.79289C7.607 5.98043 7.50164 6.23478 7.50164 6.5V8.58623L7.20852 8.29311L7.20229 8.28688L7.19583 8.28086C7.00627 8.10422 6.75554 8.00806 6.49647 8.01263C6.2374 8.0172 5.99022 8.12215 5.807 8.30537C5.62379 8.48858 5.51884 8.73576 5.51427 8.99483C5.50969 9.2539 5.60586 9.50463 5.7825 9.6942L5.78851 9.70065L5.79475 9.70689L7.79475 11.7069L7.79497 11.7071C7.98247 11.8944 8.23664 11.9996 8.50164 11.9996C8.76664 11.9996 9.0208 11.8944 9.2083 11.7071L9.20852 11.7069L11.2034 9.71205C11.2981 9.62191 11.3743 9.51404 11.4275 9.39453L11.4275 9.39452C11.4822 9.27186 11.5116 9.13944 11.514 9.00517C11.5163 8.8709 11.4916 8.73752 11.4413 8.61301C11.391 8.48849 11.3162 8.37538 11.2212 8.28042C11.1263 8.18547 11.0131 8.1106 10.8886 8.06031L10.7014 8.52392L10.8886 8.06031C10.7641 8.01002 10.6307 7.98531 10.4965 7.98768C10.3622 7.99005 10.2298 8.01944 10.1071 8.0741C9.98759 8.12735 9.87972 8.20353 9.78959 8.29828L9.50164 8.58623Z" fill="#8B5CF6" stroke="#8B5CF6"/>
</g>
</svg>
