<svg width="44" height="44" viewBox="0 0 44 44" fill="none" xmlns="http://www.w3.org/2000/svg">
<rect width="44" height="44" rx="12" fill="#FEF3C7"/>
<path d="M25.39 15.21L26.7999 18.03C26.9899 18.42 27.4999 18.79 27.9299 18.87L30.48 19.29C32.11 19.56 32.49 20.74 31.32 21.92L29.3299 23.91C28.9999 24.24 28.81 24.89 28.92 25.36L29.4899 27.82C29.9399 29.76 28.9 30.52 27.19 29.5L24.7999 28.08C24.3699 27.82 23.65 27.82 23.22 28.08L20.8299 29.5C19.1199 30.51 18.0799 29.76 18.5299 27.82L19.1 25.36C19.21 24.9 19.02 24.25 18.69 23.91L16.7 21.92C15.53 20.75 15.91 19.57 17.54 19.29L20.0899 18.87C20.5199 18.8 21.03 18.42 21.22 18.03L22.63 15.21C23.38 13.68 24.62 13.68 25.39 15.21Z" fill="#F59E0B"/>
<path opacity="0.4" d="M18 15.75H12C11.59 15.75 11.25 15.41 11.25 15C11.25 14.59 11.59 14.25 12 14.25H18C18.41 14.25 18.75 14.59 18.75 15C18.75 15.41 18.41 15.75 18 15.75Z" fill="#F59E0B"/>
<path opacity="0.4" d="M15 29.75H12C11.59 29.75 11.25 29.41 11.25 29C11.25 28.59 11.59 28.25 12 28.25H15C15.41 28.25 15.75 28.59 15.75 29C15.75 29.41 15.41 29.75 15 29.75Z" fill="#F59E0B"/>
<path opacity="0.4" d="M13 22.75H12C11.59 22.75 11.25 22.41 11.25 22C11.25 21.59 11.59 21.25 12 21.25H13C13.41 21.25 13.75 21.59 13.75 22C13.75 22.41 13.41 22.75 13 22.75Z" fill="#F59E0B"/>
</svg>
