<svg width="44" height="44" viewBox="0 0 44 44" fill="none" xmlns="http://www.w3.org/2000/svg">
<rect width="44" height="44" rx="12" fill="#E0E7FF"/>
<path opacity="0.4" d="M24.9999 32.75C24.7299 32.75 24.4799 32.6 24.3499 32.37C24.2199 32.14 24.2199 31.85 24.3599 31.62L25.4099 29.87C25.6199 29.51 26.0799 29.4 26.4399 29.61C26.7999 29.82 26.9099 30.28 26.6999 30.64L26.4299 31.09C29.1899 30.44 31.2599 27.96 31.2599 25C31.2599 24.59 31.5999 24.25 32.0099 24.25C32.4199 24.25 32.7599 24.59 32.7599 25C32.7499 29.27 29.2699 32.75 24.9999 32.75Z" fill="#3B82F6"/>
<path opacity="0.4" d="M12 19.75C11.59 19.75 11.25 19.41 11.25 19C11.25 14.73 14.73 11.25 19 11.25C19.27 11.25 19.52 11.4 19.65 11.63C19.78 11.86 19.78 12.15 19.64 12.38L18.59 14.13C18.38 14.49 17.92 14.6 17.56 14.39C17.2 14.18 17.09 13.72 17.3 13.36L17.57 12.91C14.81 13.56 12.74 16.04 12.74 19C12.75 19.41 12.41 19.75 12 19.75Z" fill="#3B82F6"/>
<path d="M20.67 23.85L17.53 22.16C17.2 21.98 16.8 21.98 16.47 22.16L13.33 23.85C13.1 23.97 12.96 24.22 12.96 24.49C12.96 24.76 13.1 25.01 13.33 25.13L16.47 26.82C16.64 26.91 16.82 26.95 17 26.95C17.18 26.95 17.36 26.91 17.53 26.82L20.67 25.13C20.9 25.01 21.0399 24.76 21.0399 24.49C21.0399 24.22 20.89 23.98 20.67 23.85Z" fill="#3B82F6"/>
<path d="M15.95 27.41L13.03 25.95C12.81 25.84 12.55 25.85 12.33 25.98C12.12 26.11 11.99 26.34 11.99 26.59V29.35C11.99 29.83 12.25 30.26 12.68 30.47L15.6 31.93C15.7 31.98 15.81 32.01 15.92 32.01C16.05 32.01 16.18 31.97 16.3 31.9C16.51 31.77 16.64 31.54 16.64 31.29V28.53C16.65 28.05 16.38 27.62 15.95 27.41Z" fill="#3B82F6"/>
<path d="M21.6601 25.98C21.4501 25.85 21.1901 25.84 20.9601 25.95L18.0401 27.41C17.6101 27.62 17.3501 28.05 17.3501 28.53V31.29C17.3501 31.54 17.4801 31.77 17.6901 31.9C17.8101 31.97 17.9401 32.01 18.0701 32.01C18.1801 32.01 18.2901 31.98 18.3901 31.93L21.3101 30.47C21.7401 30.26 22.0001 29.83 22.0001 29.35V26.59C22.0001 26.34 21.8701 26.11 21.6601 25.98Z" fill="#3B82F6"/>
<path d="M30.67 13.83L27.53 12.14C27.2 11.96 26.8 11.96 26.47 12.14L23.33 13.83C23.1 13.95 22.96 14.2 22.96 14.47C22.96 14.74 23.1 14.99 23.33 15.11L26.47 16.8C26.64 16.89 26.82 16.93 27 16.93C27.18 16.93 27.36 16.89 27.53 16.8L30.67 15.11C30.9 14.99 31.0399 14.74 31.0399 14.47C31.0399 14.19 30.89 13.95 30.67 13.83Z" fill="#3B82F6"/>
<path d="M25.95 17.38L23.03 15.92C22.81 15.81 22.55 15.82 22.33 15.95C22.12 16.08 21.99 16.31 21.99 16.56V19.32C21.99 19.8 22.25 20.23 22.68 20.44L25.6 21.9C25.7 21.95 25.81 21.98 25.92 21.98C26.05 21.98 26.18 21.94 26.3 21.87C26.51 21.74 26.64 21.51 26.64 21.26V18.5C26.65 18.02 26.38 17.59 25.95 17.38Z" fill="#3B82F6"/>
<path d="M31.6601 15.95C31.4501 15.82 31.1901 15.81 30.9601 15.92L28.0401 17.38C27.6101 17.59 27.3501 18.02 27.3501 18.5V21.26C27.3501 21.51 27.4801 21.74 27.6901 21.87C27.8101 21.94 27.9401 21.98 28.0701 21.98C28.1801 21.98 28.2901 21.95 28.3901 21.9L31.3101 20.44C31.7401 20.23 32.0001 19.8 32.0001 19.32V16.56C32.0001 16.31 31.8701 16.08 31.6601 15.95Z" fill="#3B82F6"/>
</svg>
