<svg width="32" height="32" viewBox="0 0 32 32" fill="none" xmlns="http://www.w3.org/2000/svg">
<rect width="32" height="32" rx="16" fill="#5B21B6"/>
<path d="M16.0026 8.13034C18.5678 8.13034 18.8689 8.14178 19.8828 8.18751C20.8204 8.22944 21.3274 8.38571 21.6666 8.51912C22.1164 8.69445 22.4365 8.90027 22.7719 9.23569C23.1074 9.5711 23.317 9.89127 23.4885 10.341C23.6181 10.6803 23.7782 11.1872 23.8201 12.1248C23.8659 13.1387 23.8773 13.4398 23.8773 16.005C23.8773 18.5702 23.8659 18.8713 23.8201 19.8851C23.7782 20.8228 23.6219 21.3297 23.4885 21.6689C23.3132 22.1187 23.1074 22.4389 22.7719 22.7743C22.4365 23.1097 22.1164 23.3193 21.6666 23.4908C21.3274 23.6204 20.8204 23.7805 19.8828 23.8225C18.8689 23.8682 18.5678 23.8796 16.0026 23.8796C13.4375 23.8796 13.1364 23.8682 12.1225 23.8225C11.1849 23.7805 10.6779 23.6243 10.3387 23.4908C9.88893 23.3155 9.56876 23.1097 9.23334 22.7743C8.89793 22.4389 8.68829 22.1187 8.51677 21.6689C8.38718 21.3297 8.2271 20.8228 8.18517 19.8851C8.13943 18.8713 8.128 18.5702 8.128 16.005C8.128 13.4398 8.13943 13.1387 8.18517 12.1248C8.2271 11.1872 8.38337 10.6803 8.51677 10.341C8.6921 9.89127 8.89793 9.5711 9.23334 9.23569C9.56876 8.90027 9.88893 8.69064 10.3387 8.51912C10.6779 8.38953 11.1849 8.22944 12.1225 8.18751C13.1364 8.13796 13.4413 8.13034 16.0026 8.13034ZM16.0026 6.3999C13.3955 6.3999 13.0678 6.41134 12.0425 6.45708C11.021 6.50281 10.3234 6.66671 9.7136 6.90303C9.08088 7.14696 8.54727 7.47857 8.01365 8.01218C7.48003 8.5458 7.15224 9.08323 6.90449 9.71213C6.66818 10.322 6.50428 11.0195 6.45854 12.0448C6.4128 13.0663 6.40137 13.3941 6.40137 16.0012C6.40137 18.6083 6.4128 18.9361 6.45854 19.9614C6.50428 20.9829 6.66818 21.6804 6.90449 22.294C7.14843 22.9267 7.48003 23.4604 8.01365 23.994C8.54727 24.5276 9.08469 24.8554 9.7136 25.1031C10.3234 25.3394 11.021 25.5033 12.0463 25.5491C13.0716 25.5948 13.3955 25.6063 16.0065 25.6063C18.6174 25.6063 18.9413 25.5948 19.9666 25.5491C20.9881 25.5033 21.6857 25.3394 22.2993 25.1031C22.932 24.8592 23.4656 24.5276 23.9993 23.994C24.5329 23.4604 24.8607 22.9229 25.1084 22.294C25.3447 21.6842 25.5086 20.9867 25.5544 19.9614C25.6001 18.9361 25.6115 18.6121 25.6115 16.0012C25.6115 13.3903 25.6001 13.0663 25.5544 12.041C25.5086 11.0195 25.3447 10.322 25.1084 9.70832C24.8645 9.0756 24.5329 8.54199 23.9993 8.00837C23.4656 7.47476 22.9282 7.14696 22.2993 6.89921C21.6895 6.6629 20.992 6.499 19.9666 6.45326C18.9375 6.41134 18.6097 6.3999 16.0026 6.3999Z" fill="white"/>
<path d="M16.0026 8.13034C18.5678 8.13034 18.8689 8.14178 19.8828 8.18751C20.8204 8.22944 21.3274 8.38571 21.6666 8.51912C22.1164 8.69445 22.4365 8.90027 22.7719 9.23569C23.1074 9.5711 23.317 9.89127 23.4885 10.341C23.6181 10.6803 23.7782 11.1872 23.8201 12.1248C23.8659 13.1387 23.8773 13.4398 23.8773 16.005C23.8773 18.5702 23.8659 18.8713 23.8201 19.8851C23.7782 20.8228 23.6219 21.3297 23.4885 21.6689C23.3132 22.1187 23.1074 22.4389 22.7719 22.7743C22.4365 23.1097 22.1164 23.3193 21.6666 23.4908C21.3274 23.6204 20.8204 23.7805 19.8828 23.8225C18.8689 23.8682 18.5678 23.8796 16.0026 23.8796C13.4375 23.8796 13.1364 23.8682 12.1225 23.8225C11.1849 23.7805 10.6779 23.6243 10.3387 23.4908C9.88893 23.3155 9.56876 23.1097 9.23334 22.7743C8.89793 22.4389 8.68829 22.1187 8.51677 21.6689C8.38718 21.3297 8.2271 20.8228 8.18517 19.8851C8.13943 18.8713 8.128 18.5702 8.128 16.005C8.128 13.4398 8.13943 13.1387 8.18517 12.1248C8.2271 11.1872 8.38337 10.6803 8.51677 10.341C8.6921 9.89127 8.89793 9.5711 9.23334 9.23569C9.56876 8.90027 9.88893 8.69064 10.3387 8.51912C10.6779 8.38953 11.1849 8.22944 12.1225 8.18751C13.1364 8.13796 13.4413 8.13034 16.0026 8.13034Z" fill="white"/>
<path d="M16.0024 11.073C13.281 11.073 11.0703 13.2799 11.0703 16.0051C11.0703 18.7304 13.2772 20.9373 16.0024 20.9373C18.7277 20.9373 20.9346 18.7304 20.9346 16.0051C20.9346 13.2799 18.7277 11.073 16.0024 11.073ZM16.0024 19.203C14.2339 19.203 12.8008 17.7699 12.8008 16.0013C12.8008 14.2328 14.2339 12.7996 16.0024 12.7996C17.771 12.7996 19.2041 14.2328 19.2041 16.0013C19.2041 17.7699 17.771 19.203 16.0024 19.203Z" fill="#5B21B6"/>
<path d="M21.1291 12.026C21.7648 12.026 22.2802 11.5107 22.2802 10.875C22.2802 10.2392 21.7648 9.72388 21.1291 9.72388C20.4934 9.72388 19.978 10.2392 19.978 10.875C19.978 11.5107 20.4934 12.026 21.1291 12.026Z" fill="#5B21B6"/>
</svg>
