<svg width="48" height="48" viewBox="0 0 48 48" fill="none" xmlns="http://www.w3.org/2000/svg">
<path d="M17.2605 22.14C16.1643 22.14 15.2605 23.0439 15.2605 24.14C15.2605 25.2273 16.1371 26.1434 17.266 26.12H27.7005V42.28C27.7005 42.9601 27.1481 43.5 26.4805 43.5C20.7098 43.5 15.8413 41.4887 12.4165 38.0639C8.99175 34.6392 6.98047 29.7706 6.98047 24C6.98047 18.2294 8.99175 13.3608 12.4165 9.93605C15.8413 6.51128 20.7098 4.5 26.4805 4.5C27.1609 4.5 27.7036 5.03397 27.7205 5.72561V22.14H17.2605Z" fill="white" stroke="white"/>
<path d="M40.725 23.4332L40.7257 23.4339C41.1129 23.8211 41.1038 24.4347 40.7181 24.7948L40.7114 24.801L40.705 24.8074L35.0257 30.5068C35.0256 30.5069 35.0255 30.507 35.0254 30.5071C34.8241 30.7081 34.5736 30.8003 34.3192 30.8003C34.0647 30.8003 33.8141 30.708 33.6128 30.5068C33.228 30.122 33.228 29.4786 33.6128 29.0939L36.7328 25.9739L37.5863 25.1203H36.3792H28.6992V23.1203H36.3992H37.6063L36.7528 22.2668L33.6328 19.1468C33.248 18.762 33.248 18.1186 33.6328 17.7339C34.0174 17.3492 34.6606 17.3491 35.0454 17.7336C35.0455 17.7337 35.0456 17.7338 35.0457 17.7339L40.725 23.4332Z" fill="white" stroke="white"/>
</svg>
