<svg width="32" height="32" viewBox="0 0 32 32" fill="none" xmlns="http://www.w3.org/2000/svg">
<g id="vuesax/linear/money-2">
<path id="Vector" d="M22.6667 27.3332H9.33341C5.33341 27.3332 2.66675 25.3332 2.66675 20.6665V11.3332C2.66675 6.6665 5.33341 4.6665 9.33341 4.6665H22.6667C26.6667 4.6665 29.3334 6.6665 29.3334 11.3332V20.6665C29.3334 25.3332 26.6667 27.3332 22.6667 27.3332Z" stroke="#475569" stroke-width="1.5" stroke-miterlimit="10" stroke-linecap="round" stroke-linejoin="round"/>
<path id="Vector_2" d="M16 20C18.2091 20 20 18.2091 20 16C20 13.7909 18.2091 12 16 12C13.7909 12 12 13.7909 12 16C12 18.2091 13.7909 20 16 20Z" stroke="#475569" stroke-width="1.5" stroke-miterlimit="10" stroke-linecap="round" stroke-linejoin="round"/>
<path id="Vector_3" d="M2.66675 12.0002H4.00008C8.00008 12.0002 9.33341 10.6668 9.33341 6.66683V5.3335" stroke="#475569" stroke-width="1.5" stroke-miterlimit="10" stroke-linecap="round" stroke-linejoin="round"/>
<path id="Vector_4" d="M29.3334 12.0002H28.0001C24.0001 12.0002 22.6667 10.6668 22.6667 6.66683V5.3335" stroke="#475569" stroke-width="1.5" stroke-miterlimit="10" stroke-linecap="round" stroke-linejoin="round"/>
<path id="Vector_5" d="M2.66675 20H4.00008C8.00008 20 9.33341 21.3333 9.33341 25.3333V26.6667" stroke="#475569" stroke-width="1.5" stroke-miterlimit="10" stroke-linecap="round" stroke-linejoin="round"/>
<path id="Vector_6" d="M29.3334 20H28.0001C24.0001 20 22.6667 21.3333 22.6667 25.3333V26.6667" stroke="#475569" stroke-width="1.5" stroke-miterlimit="10" stroke-linecap="round" stroke-linejoin="round"/>
</g>
</svg>
