<svg width="174" height="42" viewBox="0 0 174 42" fill="none" xmlns="http://www.w3.org/2000/svg">
<path d="M56.4242 6.03405C56.4242 7.28512 56.0519 8.283 55.3072 9.01279C54.4732 9.89151 53.3859 10.3383 52.0306 10.3383C50.7349 10.3383 49.6327 9.89151 48.7391 8.99789C47.8455 8.10427 47.3987 6.98725 47.3987 5.67661C47.3987 4.36597 47.8455 3.24894 48.7391 2.35532C49.6327 1.4617 50.7349 1 52.0306 1C52.6859 1 53.3115 1.11915 53.8923 1.34255C54.4732 1.58085 54.9498 1.90851 55.3221 2.32553L54.503 3.14468C54.2349 2.81702 53.8774 2.54894 53.4306 2.37022C52.9891 2.17814 52.512 2.08169 52.0306 2.08724C51.0625 2.08724 50.2285 2.42979 49.5583 3.10001C48.888 3.78511 48.5604 4.63405 48.5604 5.66171C48.5604 6.68938 48.888 7.53831 49.5583 8.22342C50.2285 8.89364 51.0476 9.23619 52.0306 9.23619C52.9242 9.23619 53.654 8.983 54.2498 8.49151C54.8455 8.00002 55.1881 7.30002 55.2774 6.43618H52.0306V5.36384H56.3647C56.3945 5.60214 56.4242 5.82554 56.4242 6.03405ZM63.2902 1.20851V2.31064H59.2242V5.14043H62.8881V6.21278H59.2242V9.04257H63.2902V10.1447H58.0774V1.20851H63.2902ZM68.1307 2.31064V10.1447H66.9838V2.31064H64.4817V1.20851H70.6179V2.31064H68.1307ZM76.2179 10.1447H75.0711V1.20851H76.2179V10.1447ZM81.3115 2.31064V10.1447H80.1647V2.31064H77.6626V1.20851H83.7988V2.31064H81.3115ZM96.7414 5.67661C96.7414 7.00214 96.2946 8.10427 95.4158 8.99789C94.5222 9.89151 93.435 10.3383 92.1392 10.3383C90.8435 10.3383 89.7562 9.89151 88.8626 8.99789C87.9839 8.10427 87.5371 7.00214 87.5371 5.67661C87.5371 4.35107 87.9839 3.24894 88.8626 2.35532C89.7413 1.4617 90.8286 1 92.1392 1C93.435 1 94.5222 1.44681 95.4158 2.35532C96.3095 3.26384 96.7414 4.36597 96.7414 5.67661ZM88.7286 5.67661C88.7286 6.70427 89.0562 7.5681 89.6967 8.23832C90.352 8.90853 91.1711 9.25108 92.1392 9.25108C93.1073 9.25108 93.9265 8.90853 94.5669 8.23832C95.2222 7.5681 95.5499 6.71916 95.5499 5.67661C95.5499 4.63405 95.2222 3.78511 94.5669 3.1149C93.9116 2.44468 93.1073 2.10213 92.1392 2.10213C91.1711 2.10213 90.352 2.44468 89.6967 3.1149C89.0562 3.78511 88.7286 4.64895 88.7286 5.67661ZM99.4967 10.1447H98.3499V1.20851H99.7499L104.099 8.16385H104.144L104.099 6.43618V1.20851H105.246V10.1447H104.054L99.5116 2.86171H99.4669L99.5116 4.58937V10.1447H99.4967Z" fill="white" stroke="white" stroke-width="0.297873" stroke-miterlimit="10"/>
<path d="M87.2839 23.1768C83.7839 23.1768 80.9243 25.8427 80.9243 29.5066C80.9243 33.1555 83.7839 35.8364 87.2839 35.8364C90.7839 35.8364 93.6435 33.1555 93.6435 29.5066C93.6435 25.8427 90.7839 23.1768 87.2839 23.1768ZM87.2839 33.3491C85.3626 33.3491 83.7094 31.7704 83.7094 29.5066C83.7094 27.2279 85.3626 25.664 87.2839 25.664C89.2051 25.664 90.8583 27.2279 90.8583 29.5066C90.8583 31.7704 89.1903 33.3491 87.2839 33.3491ZM73.403 23.1768C69.903 23.1768 67.0434 25.8427 67.0434 29.5066C67.0434 33.1555 69.903 35.8364 73.403 35.8364C76.903 35.8364 79.7626 33.1555 79.7626 29.5066C79.7626 25.8427 76.903 23.1768 73.403 23.1768ZM73.403 33.3491C71.4817 33.3491 69.8285 31.7704 69.8285 29.5066C69.8285 27.2279 71.4817 25.664 73.403 25.664C75.3243 25.664 76.9775 27.2279 76.9775 29.5066C76.9775 31.7704 75.3243 33.3491 73.403 33.3491ZM56.9008 25.1278V27.8087H63.3349C63.1413 29.313 62.6349 30.43 61.8753 31.1896C60.937 32.1279 59.4774 33.1555 56.9157 33.1555C52.954 33.1555 49.8561 29.9683 49.8561 26.0066C49.8561 22.0449 52.954 18.8576 56.9157 18.8576C59.0455 18.8576 60.6093 19.6917 61.7561 20.7789L63.6476 18.8874C62.0391 17.3534 59.9093 16.1768 56.9008 16.1768C51.4795 16.1768 46.9221 20.5853 46.9221 26.0215C46.9221 31.4428 51.4795 35.8662 56.9008 35.8662C59.8349 35.8662 62.0391 34.913 63.7668 33.1108C65.5391 31.3385 66.0902 28.8364 66.0902 26.8257C66.0902 26.2002 66.0455 25.6193 65.9413 25.1427H56.9008V25.1278ZM124.384 27.213C123.863 25.7981 122.254 23.1768 118.963 23.1768C115.701 23.1768 112.99 25.7385 112.99 29.5066C112.99 33.0513 115.671 35.8364 119.275 35.8364C122.18 35.8364 123.863 34.064 124.548 33.0364L122.388 31.5917C121.673 32.6491 120.69 33.3491 119.275 33.3491C117.861 33.3491 116.848 32.7087 116.207 31.4279L124.682 27.9279L124.384 27.213ZM115.746 29.3279C115.671 26.8853 117.637 25.6342 119.052 25.6342C120.154 25.6342 121.092 26.1853 121.405 26.9747L115.746 29.3279ZM108.865 35.464H111.65V16.847H108.865V35.464ZM104.307 24.5917H104.203C103.578 23.847 102.386 23.1768 100.867 23.1768C97.6945 23.1768 94.7903 25.9619 94.7903 29.5364C94.7903 33.0811 97.6945 35.8513 100.867 35.8513C102.371 35.8513 103.578 35.1811 104.203 34.4066H104.292V35.3151C104.292 37.7428 102.997 39.0385 100.912 39.0385C99.2137 39.0385 98.1562 37.8172 97.7243 36.7896L95.2966 37.8023C95.9967 39.4853 97.8435 41.5407 100.912 41.5407C104.173 41.5407 106.929 39.6194 106.929 34.9428V23.564H104.292V24.5917H104.307ZM101.105 33.3491C99.1839 33.3491 97.5754 31.7406 97.5754 29.5364C97.5754 27.3023 99.1839 25.6789 101.105 25.6789C102.997 25.6789 104.486 27.3172 104.486 29.5364C104.501 31.7406 103.012 33.3491 101.105 33.3491ZM137.431 16.847H130.773V35.464H133.558V28.4044H137.446C140.529 28.4044 143.552 26.1704 143.552 22.6257C143.537 19.081 140.499 16.847 137.431 16.847ZM137.49 25.813H133.544V19.4236H137.49C139.575 19.4236 140.752 21.1512 140.752 22.6108C140.752 24.0704 139.575 25.813 137.49 25.813ZM154.678 23.147C152.667 23.147 150.582 24.0406 149.718 25.9917L152.19 27.0193C152.712 25.9917 153.695 25.6491 154.722 25.6491C156.152 25.6491 157.627 26.513 157.641 28.047V28.2406C157.135 27.9576 156.063 27.5257 154.737 27.5257C152.071 27.5257 149.376 28.9853 149.376 31.7108C149.376 34.1981 151.55 35.8066 153.993 35.8066C155.854 35.8066 156.897 34.9726 157.537 33.9896H157.627V35.4194H160.307V28.2853C160.322 24.9938 157.85 23.147 154.678 23.147ZM154.335 33.3491C153.427 33.3491 152.161 32.8874 152.161 31.7704C152.161 30.3406 153.739 29.7896 155.11 29.7896C156.331 29.7896 156.912 30.0576 157.641 30.4151C157.538 31.2212 157.146 31.9626 156.538 32.5021C155.931 33.0415 155.148 33.3424 154.335 33.3491ZM170.093 23.5491L166.905 31.6215H166.816L163.51 23.5491H160.516L165.476 34.8385L162.646 41.1087H165.55L173.19 23.5491H170.093ZM145.071 35.464H147.856V16.847H145.071V35.464Z" fill="white"/>
<path d="M16.6581 19.7063L0.796326 36.5361V36.551C0.967957 37.1886 1.28459 37.7778 1.72152 38.2728C2.15845 38.7678 2.70385 39.1551 3.31516 39.4045C3.92647 39.6539 4.58714 39.7587 5.24563 39.7107C5.90411 39.6627 6.54259 39.4631 7.11124 39.1276L7.15592 39.0978L24.9985 28.8063L16.6581 19.7063Z" fill="#EA4335"/>
<path d="M32.6986 16.8468L32.6837 16.8319L24.9837 12.3638L16.3007 20.0936L25.0135 28.8064L32.6837 24.383C33.3621 24.0157 33.929 23.4723 34.3245 22.8099C34.72 22.1475 34.9296 21.3908 34.9311 20.6193C34.9326 19.8478 34.726 19.0902 34.3331 18.4263C33.9402 17.7624 33.3756 17.2167 32.6986 16.8468Z" fill="#FBBC04"/>
<path d="M0.796337 4.60425C0.706975 4.9617 0.6474 5.31914 0.6474 5.70638V35.449C0.6474 35.8363 0.692081 36.1937 0.796337 36.5511L17.1943 20.1532L0.796337 4.60425Z" fill="#4285F4"/>
<path d="M16.7772 20.5702L24.9836 12.3638L7.15592 2.02756C6.58601 1.68679 5.94497 1.48254 5.28297 1.4308C4.62097 1.37907 3.95599 1.48125 3.34006 1.72935C2.72414 1.97746 2.17399 2.36474 1.73269 2.8609C1.29139 3.35705 0.970901 3.94861 0.796326 4.58927L16.7772 20.5702Z" fill="#34A853"/>
</svg>
