<svg width="44" height="44" viewBox="0 0 44 44" fill="none" xmlns="http://www.w3.org/2000/svg">
<rect width="44" height="44" rx="12" fill="#EDE9FE"/>
<path opacity="0.4" d="M19.42 12.16L13.92 14.22C12.87 14.61 12.01 15.86 12.01 16.98V25.08C12.01 25.89 12.54 26.96 13.19 27.44L18.69 31.55C19.66 32.28 21.25 32.28 22.22 31.55L27.72 27.44C28.37 26.95 28.9 25.89 28.9 25.08V16.98C28.9 15.86 28.04 14.61 26.99 14.22L21.49 12.16C20.92 11.95 19.99 11.95 19.42 12.16Z" fill="#7C3AED"/>
<path d="M29.26 16.76H22.41C22.21 16.76 22.02 16.77 21.84 16.77C20.12 16.87 19.66 17.5 19.66 19.46V19.85C19.66 20.2642 19.9958 20.6 20.41 20.6H31.25C31.6642 20.6 32 20.2642 32 19.85V19.46C32 17.3 31.45 16.76 29.26 16.76Z" fill="#7C3AED"/>
<path d="M20.42 21.7C20.0058 21.7 19.67 22.0358 19.67 22.45V24.54C19.67 26.7 20.22 27.25 22.41 27.25H29.26C31.41 27.25 31.98 26.73 32 24.66V22.45C32 22.0358 31.6642 21.7 31.25 21.7H20.42ZM23.27 25.47H22.02C21.72 25.47 21.48 25.23 21.48 24.93C21.48 24.63 21.72 24.39 22.02 24.39H23.27C23.57 24.39 23.81 24.63 23.81 24.93C23.81 25.23 23.57 25.47 23.27 25.47ZM27.32 25.47H24.83C24.53 25.47 24.29 25.23 24.29 24.93C24.29 24.63 24.53 24.39 24.83 24.39H27.32C27.62 24.39 27.86 24.63 27.86 24.93C27.87 25.23 27.62 25.47 27.32 25.47Z" fill="#7C3AED"/>
</svg>
