<svg width="44" height="44" viewBox="0 0 44 44" fill="none" xmlns="http://www.w3.org/2000/svg">
<rect width="44" height="44" rx="12" fill="#E5FDDB"/>
<path opacity="0.4" d="M28 28.86H27.24C26.44 28.86 25.68 29.17 25.12 29.73L23.41 31.42C22.63 32.19 21.36 32.19 20.58 31.42L18.87 29.73C18.31 29.17 17.54 28.86 16.75 28.86H16C14.34 28.86 13 27.53 13 25.89V14.98C13 13.34 14.34 12.01 16 12.01H28C29.66 12.01 31 13.34 31 14.98V25.89C31 27.52 29.66 28.86 28 28.86Z" fill="#45BC1A"/>
<path d="M20.38 24.51H17.7C17.26 24.51 16.85 24.3 16.59 23.94C16.34 23.6 16.28 23.18 16.4 22.78C16.75 21.71 17.61 21.13 18.37 20.61C19.17 20.07 19.62 19.73 19.62 19.15C19.62 18.63 19.2 18.21 18.68 18.21C18.16 18.21 17.74 18.63 17.74 19.15C17.74 19.56 17.4 19.9 16.99 19.9C16.58 19.9 16.24 19.56 16.24 19.15C16.24 17.81 17.33 16.71 18.68 16.71C20.03 16.71 21.12 17.8 21.12 19.15C21.12 20.56 20.06 21.28 19.21 21.86C18.68 22.22 18.18 22.56 17.93 23.01H20.37C20.78 23.01 21.12 23.35 21.12 23.76C21.12 24.17 20.79 24.51 20.38 24.51Z" fill="#45BC1A"/>
<path d="M26.04 24.51C25.63 24.51 25.29 24.17 25.29 23.76V23.07H23.33C23.33 23.07 23.33 23.07 23.32 23.07C22.83 23.07 22.38 22.81 22.13 22.39C21.88 21.96 21.88 21.43 22.13 21.01C22.81 19.84 23.6 18.51 24.32 17.35C24.64 16.84 25.25 16.61 25.82 16.77C26.39 16.94 26.79 17.46 26.78 18.06V21.58H27C27.41 21.58 27.75 21.92 27.75 22.33C27.75 22.74 27.41 23.08 27 23.08H26.79V23.77C26.79 24.18 26.46 24.51 26.04 24.51ZM25.29 18.64C24.7 19.6 24.09 20.63 23.54 21.57H25.29V18.64Z" fill="#45BC1A"/>
</svg>
