<svg width="32" height="32" viewBox="0 0 32 32" fill="none" xmlns="http://www.w3.org/2000/svg">
<rect width="32" height="32" rx="16" fill="#5B21B6"/>
<path d="M26.9587 10.5043C26.6951 9.5252 25.9231 8.75318 24.944 8.48957C23.1551 8 15.9999 8 15.9999 8C15.9999 8 8.84464 8 7.05582 8.47074C6.09551 8.73436 5.30467 9.5252 5.04105 10.5043C4.57031 12.2932 4.57031 16.0026 4.57031 16.0026C4.57031 16.0026 4.57031 19.7309 5.04105 21.5008C5.30467 22.48 6.07668 23.252 7.05582 23.5156C8.86347 24.0052 15.9999 24.0052 15.9999 24.0052C15.9999 24.0052 23.1551 24.0052 24.944 23.5344C25.9231 23.2708 26.6951 22.4988 26.9587 21.5197C27.4295 19.7309 27.4295 16.0214 27.4295 16.0214C27.4295 16.0214 27.4483 12.2932 26.9587 10.5043Z" fill="white"/>
<path d="M13.7214 19.4294L19.6716 16.0024L13.7214 12.5754V19.4294Z" fill="#5B21B6"/>
</svg>
